<svg width="113" height="113" viewBox="0 0 113 113" fill="none" xmlns="http://www.w3.org/2000/svg">
<path d="M56.5 0L61.8741 5.36857L68.247 1.23466L72.3875 7.60326L79.4806 4.88468L82.2065 11.975L89.7099 10.7905L90.9021 18.2926L98.4877 18.6941L98.0941 26.2802L105.43 28.25L103.468 35.5884L110.235 39.0405L106.79 45.8106L112.69 50.5941L107.913 56.5L112.69 62.4059L106.79 67.1894L110.235 73.9595L103.468 77.4116L105.43 84.75L98.0941 86.7198L98.4877 94.3059L90.9021 94.7074L89.7099 102.209L82.2065 101.025L79.4806 108.115L72.3875 105.397L68.247 111.765L61.8741 107.631L56.5 113L51.1259 107.631L44.753 111.765L40.6125 105.397L33.5194 108.115L30.7935 101.025L23.2901 102.209L22.0979 94.7074L14.5123 94.3059L14.9059 86.7198L7.56956 84.75L9.53181 77.4116L2.76531 73.9595L6.21042 67.1894L0.309513 62.4059L5.08692 56.5L0.309513 50.5941L6.21042 45.8106L2.76531 39.0405L9.53181 35.5884L7.56956 28.25L14.9059 26.2802L14.5123 18.6941L22.0979 18.2926L23.2901 10.7905L30.7935 11.975L33.5194 4.88468L40.6125 7.60326L44.753 1.23466L51.1259 5.36857L56.5 0Z" fill="#EE1D1D"/>
</svg>
